#N canvas 1444 534 2050 1152 12;
#X floatatom 111 154 5 0 0 0 - - - 0;
#X obj 111 177 int;
#X obj 105 206 change;
#X obj 183 238 t b f;
#X obj 348 132 hsl 162 19 255 10000 0 0 empty empty Speed\ (0-10000) -2 -10 0 12 #dfdfdf #000000 #000000 0 1;
#X floatatom 345 156 5 0 0 0 - - - 0;
#X obj 345 179 int;
#X obj 339 208 change;
#X obj 417 240 t b f;
#X text 720 100 BurstAnimation;
#X text 601 101 BounceAnimation;
#X msg 667 130 65;
#X msg 719 128 66;
#X obj 585 308 print ToSerial;
#X obj 168 377 comport 3 19200;
#X msg 841 131 67;
#X text 838 100 idle;
#X msg 112 263 68;
#X msg 346 265 69;
#X text 93 264 D;
#X text 327 264 E;
#X obj 270 60 hsl 162 19 0 255 0 0 empty empty Brightness\ (0-255) -2 -10 0 12 #dfdfdf #000000 #000000 0 1;
#X obj 84 65 bng 19 250 50 0 empty empty empty 0 -10 0 12 #fcfcfc #000000 #000000;
#X obj 126 65 bng 19 250 50 0 empty empty empty 0 -10 0 12 #fcfcfc #000000 #000000;
#X obj 173 66 bng 19 250 50 0 empty empty empty 0 -10 0 12 #fcfcfc #000000 #000000;
#X text 83 30 Brightness;
#X text 385 405 comment;
#X msg 180 98 255;
#X msg 128 97 127;
#X msg 81 100 0;
#X connect 0 0 1 0;
#X connect 1 0 2 0;
#X connect 2 0 3 0;
#X connect 3 1 17 0;
#X connect 3 1 13 0;
#X connect 3 1 14 0;
#X connect 4 0 5 0;
#X connect 5 0 6 0;
#X connect 6 0 7 0;
#X connect 7 0 8 0;
#X connect 8 1 18 0;
#X connect 8 1 13 0;
#X connect 8 1 14 0;
#X connect 11 0 13 0;
#X connect 11 0 14 0;
#X connect 12 0 13 0;
#X connect 12 0 14 0;
#X connect 15 0 13 0;
#X connect 15 0 14 0;
#X connect 17 0 13 0;
#X connect 17 0 14 0;
#X connect 18 0 14 0;
#X connect 22 0 29 0;
#X connect 23 0 28 0;
#X connect 24 0 27 0;
#X connect 27 0 0 0;
#X connect 28 0 0 0;
#X connect 29 0 0 0;
