#N canvas 1981 551 1846 834 12;
#X obj 38 64 hsl 162 19 0 255 0 0 empty empty empty -2 -10 0 12 #fcfcfc #000000 #000000 0 1;
#X floatatom 35 88 5 0 0 0 - - - 0;
#X obj 35 111 int;
#X obj 256 66 hsl 162 19 0 1000 0 0 empty empty empty -2 -10 0 12 #fcfcfc #000000 #000000 0 1;
#X floatatom 253 90 5 0 0 0 - - - 0;
#X obj 253 113 int;
#X text 251 26 Speed (0-1000);
#X msg 35 135 brightnessVal;
#X msg 253 137 speedVal;
#X text 30 29 Brightness (0-255);
#X text 219 210 BurstAnimation;
#X text 33 208 BounceAnimation;
#X obj 38 240 bng 19 250 50 0 empty empty empty 0 -10 0 12 #fcfcfc #000000 #000000;
#X msg 38 264 BounceAnimation;
#X obj 217 243 bng 19 250 50 0 empty empty empty 0 -10 0 12 #fcfcfc #000000 #000000;
#X msg 217 267 BurstAnimation;
#X obj 113 342 comport 3 9600;
#X connect 0 0 1 0;
#X connect 1 0 2 0;
#X connect 2 0 7 0;
#X connect 3 0 4 0;
#X connect 4 0 5 0;
#X connect 5 0 8 0;
#X connect 12 0 13 0;
#X connect 13 0 16 0;
#X connect 14 0 15 0;
#X connect 15 0 16 0;
