#N canvas 1754 544 1858 895 12;
#X text 363 176 BurstAnimation;
#X text 244 177 BounceAnimation;
#X obj 548 283 hsl 162 19 0 255 0 0 empty empty empty -2 -10 0 12 #fcfcfc #000000 #000000 0 1;
#X floatatom 545 307 5 0 0 0 - - - 0;
#X obj 545 330 int;
#X text 541 261 Brightness;
#X obj 1121 291 hsl 162 19 0 1000 0 0 empty empty empty -2 -10 0 12 #fcfcfc #000000 #000000 0 1;
#X floatatom 1118 315 5 0 0 0 - - - 0;
#X obj 1118 338 int;
#X text 1114 269 Speed;
#X msg 310 206 65;
#X msg 362 204 66;
#X msg 1032 318 67;
#X text 1020 292 Stop;
#X obj 130 406 comport 3 19200;
#X obj 490 404 print ToSerial;
#X connect 2 0 3 0;
#X connect 3 0 4 0;
#X connect 4 0 15 0;
#X connect 4 0 14 0;
#X connect 6 0 7 0;
#X connect 7 0 8 0;
#X connect 10 0 15 0;
#X connect 10 0 14 0;
#X connect 11 0 15 0;
#X connect 11 0 14 0;
