#N canvas 1911 117 1915 1894 12;
#X text 597 34 Colour Array Palettes;
#X text 40 36 Brightness;
#X floatatom 81 167 5 0 0 0 - - - 0;
#X obj 81 190 int;
#X obj 75 219 change;
#X obj 96 248 t b f;
#X obj 54 78 bng 19 250 50 0 empty empty empty 0 -10 0 12 #fcfcfc #000000 #000000;
#X obj 96 78 bng 19 250 50 0 empty empty empty 0 -10 0 12 #fcfcfc #000000 #000000;
#X obj 143 79 bng 19 250 50 0 empty empty empty 0 -10 0 12 #fcfcfc #000000 #000000;
#X msg 150 111 255;
#X msg 98 110 127;
#X msg 51 113 0;
#X text 54 290 A;
#X msg 72 288 65;
#X obj 362 743 comport 3 19200;
#X obj 481 743 print ToSerial;
#X floatatom 256 170 5 0 0 0 - - - 0;
#X obj 256 193 int;
#X obj 250 222 change;
#X obj 271 251 t b f;
#X obj 229 81 bng 19 250 50 0 empty empty empty 0 -10 0 12 #fcfcfc #000000 #000000;
#X obj 271 81 bng 19 250 50 0 empty empty empty 0 -10 0 12 #fcfcfc #000000 #000000;
#X obj 318 82 bng 19 250 50 0 empty empty empty 0 -10 0 12 #fcfcfc #000000 #000000;
#X msg 226 116 200;
#X msg 273 113 400;
#X msg 325 114 600;
#X text 243 34 Speed (ms);
#X text 229 293 B;
#X msg 247 291 66;
#X obj 420 145 cnv 19 20 20 empty empty empty 20 12 0 12 #ff0400 #404040 0;
#X obj 456 145 cnv 19 20 20 empty empty empty 20 12 0 12 #ff8300 #404040 0;
#X obj 493 145 cnv 19 20 20 empty empty empty 20 12 0 12 #faff00 #404040 0;
#X obj 529 145 cnv 19 20 20 empty empty empty 20 12 0 12 #00ff04 #404040 0;
#X obj 565 145 cnv 19 20 20 empty empty empty 20 12 0 12 #00faff #404040 0;
#X obj 602 145 cnv 19 20 20 empty empty empty 20 12 0 12 #0400ff #404040 0;
#X obj 640 145 cnv 19 20 20 empty empty empty 20 12 0 12 #9c00ff #404040 0;
#X obj 53 360 bng 19 250 50 0 empty empty empty 0 -10 0 12 #fcfcfc #000000 #000000;
#X obj 89 360 bng 19 250 50 0 empty empty empty 0 -10 0 12 #fcfcfc #000000 #000000;
#X msg 53 384 0;
#X obj 126 360 bng 19 250 50 0 empty empty empty 0 -10 0 12 #fcfcfc #000000 #000000;
#X msg 89 384 127;
#X msg 126 384 255;
#X floatatom 53 418 5 0 0 0 - - - 0;
#X obj 53 441 int;
#X obj 53 465 t b f;
#X text 50 340 Brightness 'A';
#X obj 180 360 bng 19 250 50 0 empty empty empty 0 -10 0 12 #fcfcfc #000000 #000000;
#X obj 216 360 bng 19 250 50 0 empty empty empty 0 -10 0 12 #fcfcfc #000000 #000000;
#X msg 180 384 0;
#X obj 253 360 bng 19 250 50 0 empty empty empty 0 -10 0 12 #fcfcfc #000000 #000000;
#X floatatom 180 418 5 0 0 0 - - - 0;
#X obj 180 441 int;
#X obj 180 465 t b f;
#X text 177 340 Speed 'B';
#X obj 312 360 bng 19 250 50 0 empty empty empty 0 -10 0 12 #fcfcfc #000000 #000000;
#X obj 348 360 bng 19 250 50 0 empty empty empty 0 -10 0 12 #fcfcfc #000000 #000000;
#X msg 312 384 0;
#X obj 385 360 bng 19 250 50 0 empty empty empty 0 -10 0 12 #fcfcfc #000000 #000000;
#X floatatom 312 418 5 0 0 0 - - - 0;
#X obj 312 441 int;
#X obj 312 465 t b f;
#X obj 439 360 bng 19 250 50 0 empty empty empty 0 -10 0 12 #fcfcfc #000000 #000000;
#X obj 475 360 bng 19 250 50 0 empty empty empty 0 -10 0 12 #fcfcfc #000000 #000000;
#X msg 439 384 0;
#X obj 512 360 bng 19 250 50 0 empty empty empty 0 -10 0 12 #fcfcfc #000000 #000000;
#X msg 475 384 127;
#X msg 512 384 255;
#X floatatom 439 418 5 0 0 0 - - - 0;
#X obj 439 441 int;
#X obj 439 465 t b f;
#X text 309 340 Colour 'C';
#X text 436 340 Colour Array 'D';
#X obj 573 360 bng 19 250 50 0 empty empty empty 0 -10 0 12 #fcfcfc #000000 #000000;
#X obj 609 360 bng 19 250 50 0 empty empty empty 0 -10 0 12 #fcfcfc #000000 #000000;
#X obj 646 360 bng 19 250 50 0 empty empty empty 0 -10 0 12 #fcfcfc #000000 #000000;
#X floatatom 573 418 5 0 0 0 - - - 0;
#X obj 573 441 int;
#X obj 573 465 t b f;
#X text 570 340 LEDIndex 'E';
#X obj 692 360 bng 19 250 50 0 empty empty empty 0 -10 0 12 #fcfcfc #000000 #000000;
#X obj 728 360 bng 19 250 50 0 empty empty empty 0 -10 0 12 #fcfcfc #000000 #000000;
#X obj 765 360 bng 19 250 50 0 empty empty empty 0 -10 0 12 #fcfcfc #000000 #000000;
#X floatatom 692 418 5 0 0 0 - - - 0;
#X obj 692 441 int;
#X obj 692 465 t b f;
#X text 689 340 maxDistance 'F';
#X obj 852 360 bng 19 250 50 0 empty empty empty 0 -10 0 12 #fcfcfc #000000 #000000;
#X msg 816 384 0;
#X obj 889 360 bng 19 250 50 0 empty empty empty 0 -10 0 12 #fcfcfc #000000 #000000;
#X msg 852 384 127;
#X msg 889 384 255;
#X floatatom 816 418 5 0 0 0 - - - 0;
#X obj 816 441 int;
#X obj 816 465 t b f;
#X text 813 340 Spacing 'G';
#X obj 421 166 bng 19 250 50 0 empty empty empty 0 -10 0 12 #fcfcfc #000000 #000000;
#X obj 457 166 bng 19 250 50 0 empty empty empty 0 -10 0 12 #fcfcfc #000000 #000000;
#X msg 421 190 0;
#X obj 494 166 bng 19 250 50 0 empty empty empty 0 -10 0 12 #fcfcfc #000000 #000000;
#X floatatom 421 224 5 0 0 0 - - - 0;
#X obj 421 247 int;
#X obj 421 271 t b f;
#X msg 421 295 65;
#X text 418 122 Colour Array 'D';
#X msg 457 190 30;
#X msg 494 190 60;
#X obj 530 166 bng 19 250 50 0 empty empty empty 0 -10 0 12 #fcfcfc #000000 #000000;
#X obj 566 166 bng 19 250 50 0 empty empty empty 0 -10 0 12 #fcfcfc #000000 #000000;
#X obj 603 166 bng 19 250 50 0 empty empty empty 0 -10 0 12 #fcfcfc #000000 #000000;
#X msg 530 190 120;
#X msg 566 190 180;
#X msg 603 190 240;
#X obj 641 166 bng 19 250 50 0 empty empty empty 0 -10 0 12 #fcfcfc #000000 #000000;
#X msg 641 190 300;
#X msg 180 489 66;
#X msg 312 489 67;
#X msg 439 489 68;
#X msg 573 489 69;
#X msg 692 489 70;
#X msg 816 489 71;
#X msg 53 961 72;
#X msg 53 489 65;
#X msg 203 961 73;
#X msg 300 961 74;
#X msg 451 961 75;
#X msg 536 962 76;
#X msg 624 962 77;
#X text 200 986 Test 'I';
#X text 50 986 BounceAnimation 'H';
#X text 297 986 BurstAnimation 'J';
#X text 665 684 Notes;
#X text 665 705 Stop will stop but not clear;
#X text 665 723 If BounceAnimation called after stop it will not restart but resumes from last led BounceAnimation also has awkward pause at either end;
#X text 449 986 Pause 'K';
#X text 532 986 Reset 'L';
#X text 620 986 Idle (Default remove 77);
#X msg 216 384 200;
#X msg 348 384 60;
#X msg 385 384 180;
#X obj 436 337 cnv 19 20 20 empty empty empty 20 12 0 12 #ff0400 #404040 0;
#X obj 815 339 cnv 19 20 20 empty empty empty 20 12 0 12 #ff0400 #404040 0;
#X obj 623 988 cnv 19 20 20 empty empty empty 20 12 0 12 #ff0400 #404040 0;
#X msg 253 384 1000;
#X msg 692 384 2;
#X msg 728 384 5;
#X msg 765 384 10;
#X msg 573 384 9;
#X msg 609 384 18;
#X msg 646 384 27;
#X connect 2 0 3 0;
#X connect 3 0 4 0;
#X connect 4 0 5 0;
#X connect 5 0 13 0;
#X connect 6 0 11 0;
#X connect 7 0 10 0;
#X connect 8 0 9 0;
#X connect 9 0 2 0;
#X connect 10 0 2 0;
#X connect 11 0 2 0;
#X connect 16 0 17 0;
#X connect 17 0 18 0;
#X connect 18 0 19 0;
#X connect 19 0 28 0;
#X connect 20 0 23 0;
#X connect 21 0 24 0;
#X connect 22 0 25 0;
#X connect 23 0 16 0;
#X connect 24 0 16 0;
#X connect 25 0 16 0;
#X connect 36 0 38 0;
#X connect 37 0 40 0;
#X connect 38 0 42 0;
#X connect 39 0 41 0;
#X connect 40 0 42 0;
#X connect 41 0 42 0;
#X connect 42 0 43 0;
#X connect 43 0 44 0;
#X connect 44 1 121 0;
#X connect 44 1 14 0;
#X connect 44 1 15 0;
#X connect 46 0 48 0;
#X connect 47 0 136 0;
#X connect 48 0 50 0;
#X connect 49 0 142 0;
#X connect 50 0 51 0;
#X connect 51 0 52 0;
#X connect 52 1 114 0;
#X connect 52 1 14 0;
#X connect 52 1 15 0;
#X connect 54 0 56 0;
#X connect 55 0 137 0;
#X connect 56 0 58 0;
#X connect 57 0 138 0;
#X connect 58 0 59 0;
#X connect 59 0 60 0;
#X connect 60 1 115 0;
#X connect 60 1 14 0;
#X connect 60 1 15 0;
#X connect 61 0 63 0;
#X connect 62 0 65 0;
#X connect 63 0 67 0;
#X connect 64 0 66 0;
#X connect 65 0 67 0;
#X connect 66 0 67 0;
#X connect 67 0 68 0;
#X connect 68 0 69 0;
#X connect 69 1 116 0;
#X connect 69 1 14 0;
#X connect 69 1 15 0;
#X connect 72 0 146 0;
#X connect 73 0 147 0;
#X connect 74 0 148 0;
#X connect 75 0 76 0;
#X connect 76 0 77 0;
#X connect 77 1 117 0;
#X connect 77 1 14 0;
#X connect 77 1 15 0;
#X connect 79 0 143 0;
#X connect 80 0 144 0;
#X connect 81 0 145 0;
#X connect 82 0 83 0;
#X connect 83 0 84 0;
#X connect 84 1 118 0;
#X connect 84 1 14 0;
#X connect 84 1 15 0;
#X connect 86 0 89 0;
#X connect 87 0 91 0;
#X connect 88 0 90 0;
#X connect 89 0 91 0;
#X connect 90 0 91 0;
#X connect 91 0 92 0;
#X connect 92 0 93 0;
#X connect 93 1 119 0;
#X connect 93 1 14 0;
#X connect 93 1 15 0;
#X connect 95 0 97 0;
#X connect 96 0 104 0;
#X connect 97 0 99 0;
#X connect 98 0 105 0;
#X connect 99 0 100 0;
#X connect 100 0 101 0;
#X connect 101 0 102 0;
#X connect 104 0 99 0;
#X connect 105 0 99 0;
#X connect 106 0 109 0;
#X connect 107 0 110 0;
#X connect 108 0 111 0;
#X connect 112 0 113 0;
#X connect 114 0 14 0;
#X connect 114 0 15 0;
#X connect 115 0 14 0;
#X connect 115 0 15 0;
#X connect 116 0 14 0;
#X connect 116 0 15 0;
#X connect 117 0 14 0;
#X connect 117 0 15 0;
#X connect 118 0 14 0;
#X connect 118 0 15 0;
#X connect 119 0 14 0;
#X connect 119 0 15 0;
#X connect 120 0 14 0;
#X connect 120 0 15 0;
#X connect 121 0 14 0;
#X connect 121 0 15 0;
#X connect 122 0 14 0;
#X connect 122 0 15 0;
#X connect 123 0 14 0;
#X connect 123 0 15 0;
#X connect 124 0 14 0;
#X connect 124 0 15 0;
#X connect 125 0 14 0;
#X connect 125 0 15 0;
#X connect 136 0 50 0;
#X connect 137 0 58 0;
#X connect 138 0 58 0;
#X connect 142 0 50 0;
#X connect 143 0 82 0;
#X connect 144 0 82 0;
#X connect 145 0 82 0;
#X connect 146 0 75 0;
#X connect 147 0 75 0;
#X connect 148 0 75 0;
